<?xml version="1.0" encoding="iso-8859-1"?>
<!-- Generator: Adobe Illustrator 19.0.0, SVG Export Plug-In . SVG Version: 6.00 Build 0)  -->
<svg version="1.1" id="Capa_1" xmlns="http://www.w3.org/2000/svg" xmlns:xlink="http://www.w3.org/1999/xlink" x="0px" y="0px"
	 viewBox="0 0 512.001 512.001" style="enable-background:new 0 0 512.001 512.001;" xml:space="preserve">
<path style="fill:#93603E;" d="M315.824,105.955c9.975-15.559,16.86-38.418,9.564-72.231c-0.502-2.328-3.854-2.363-4.362-0.036
	c-2.702,12.384-12.515,32.89-39.212,54.17C293.767,92.83,305.144,98.906,315.824,105.955z"/>
<path style="fill:#7F573C;" d="M327.793,71.715c1.249-10.816,0.748-23.379-2.405-37.991c-0.502-2.328-3.854-2.363-4.362-0.036
	c-2.702,12.384-12.515,32.89-39.212,54.17c7.479,3.111,14.732,6.654,21.73,10.597C314.535,89.101,322.34,79.977,327.793,71.715z"/>
<path style="fill:#9AB748;" d="M204.423,71.229c-121.647,0-215.292,105.373-203.404,224.25l0,0
	c11.84,122.622,129.249,206.708,248.899,179.398c84.694-19.255,149.385-91.111,157.909-179.398l0,0
	C419.655,176.124,325.719,71.229,204.423,71.229z"/>
<path style="fill:#8CA532;" d="M21.968,295.479L21.968,295.479C10.424,180.039,98.402,77.342,214.898,71.501
	c-3.468-0.174-6.958-0.272-10.475-0.272c-121.647,0-215.291,105.373-203.404,224.25l0,0
	c10.673,110.541,107.139,189.748,213.698,184.28C116.746,474.641,31.937,398.723,21.968,295.479z"/>
<path style="fill:#FCB960;" d="M461.42,146.683l-28.184,28.184c-0.707,0.707-1.055,1.691-0.962,2.686
	c12,127.7-94.945,234.691-222.687,222.687c-0.995-0.094-1.979,0.255-2.686,0.962l-28.184,28.184
	c-1.406,1.405-1.307,3.733,0.235,4.986c80.265,65.219,198.466,60.476,273.198-14.256s79.475-192.932,14.256-273.198
	C465.152,145.376,462.825,145.277,461.42,146.683z"/>
<path style="fill:#FFA92C;" d="M433.266,174.837c-0.774,0.774-1.082,1.757-0.992,2.716c12,127.701-94.945,234.691-222.687,222.687
	c-0.959-0.09-1.941,0.217-2.716,0.992C362.748,449.75,481.743,330.582,433.266,174.837z"/>
<g>
	<path style="fill:#8CA532;" d="M296.886,176.319c2.07,0,4.135-0.827,5.657-2.462c2.907-3.124,2.732-8.013-0.391-10.919
		c-56.103-52.223-128.815-78.133-191.768-68.863c-4.825,2.507-9.533,5.2-14.116,8.068c-0.085,0.764-0.057,1.554,0.1,2.349
		c0.827,4.186,4.893,6.917,9.077,6.082c59.931-11.833,131.27,12.562,186.18,63.674C293.112,175.634,295,176.319,296.886,176.319z"/>
	<path style="fill:#8CA532;" d="M168.207,171.019c-1.028,0-2.072-0.206-3.074-0.642c-36.687-15.937-74.108-21.054-108.219-14.794
		c-4.19,0.769-8.223-2.007-8.994-6.205c-0.77-4.197,2.008-8.223,6.205-8.994c37.139-6.816,77.653-1.345,117.164,15.82
		c3.914,1.7,5.708,6.251,4.008,10.165C174.033,169.281,171.191,171.019,168.207,171.019z"/>
</g>
<path style="fill:#FFA92C;" d="M192.911,416.776c-0.303-0.246-0.535-0.542-0.728-0.856l-13.465,13.465
	c-1.406,1.406-1.307,3.733,0.235,4.986c80.265,65.219,198.466,60.476,273.198-14.256c1.303-1.304,2.58-2.623,3.841-3.953
	C379.717,478.734,269.41,478.935,192.911,416.776z"/>
<g>
</g>
<g>
</g>
<g>
</g>
<g>
</g>
<g>
</g>
<g>
</g>
<g>
</g>
<g>
</g>
<g>
</g>
<g>
</g>
<g>
</g>
<g>
</g>
<g>
</g>
<g>
</g>
<g>
</g>
</svg>
